<svg xmlns="http://www.w3.org/2000/svg"
  shape-rendering="geometricPrecision"
  text-rendering="geometricPrecision"
  image-rendering="optimizeQuality"
  fill-rule="evenodd"
  clip-rule="evenodd"
  viewBox="0 0 25000 20139"
  style="background-color:#bdecff;">
  <defs>
    <style>
    .fil2 {fill:#EBF9FF;fill-rule:nonzero}
  </style>
  </defs>
  <g>
    <path class="fil2" d="M 25120.11 14231.534 C 25120.11 14617.454 21936.11 14704.327 21936.11 14231.534 C 21850.11 13927.534 21904.11 13522.534 22102.11 13264.534 C 22227.11 13101.534 22433.11 13018.534 22640.11 13018.534 C 22819.11 13018.534 22998.11 13080.534 23124.11 13206.534 C 23248.11 12809.534 23589.11 12459.534 23981.11 12320.534 C 24085.11 12283.534 24201.11 12260.534 24316.11 12260.534 C 24410.11 12260.534 24503.11 12275.534 24588.11 12312.534 C 24807.11 12405.534 24948.11 12658.534 25086.11 12840.534 C 25101.11 12859.534 25111.11 12874.534 25120.11 12884.534 L 25120.11 14229.534 L 25120.11 14231.534 Z"/>
    <path class="fil2" d="M 15952.501 12167.366 C 15764.846 12727.818 11890.838 13370.021 10015.099 12167.366 C 9886.025 11646.688 9980.142 10981.288 10259.802 10558.139 C 10434.59 10293.868 10720.972 10161.731 11007.355 10161.731 C 11262.814 10161.731 11518.273 10267.125 11697.094 10476.341 C 11869.193 9831.391 12291.372 9222.622 12837.247 8974.081 C 12989.177 8904.867 13157.243 8862.395 13325.308 8862.395 C 13455.727 8862.395 13586.144 8887.563 13705.808 8947.339 C 14031.181 9107.79 14227.481 9485.321 14433.192 9801.504 C 14454.705 9836.111 14528.654 9985.551 14560.922 9991.842 C 14560.922 9991.842 14560.922 9991.842 14562.267 9991.842 C 14586.468 9991.842 14815.036 9869.145 14901.085 9829.818 C 14985.79 9790.492 15073.185 9771.616 15159.234 9771.616 C 15311.164 9771.616 15460.406 9834.537 15582.757 9963.527 C 16107.12 10517.24 15976.702 11445.338 15955.19 12167.366 L 15952.501 12167.366 Z" style=""/>
    <path class="fil2" d="M 9636.076 2529.292 C 9316.782 3000.087 6165.834 3287.303 5029.076 2529.292 C 4929.076 2179.292 5002.076 1736.292 5219.076 1456.292 C 5356.076 1279.292 5580.076 1190.292 5805.076 1190.292 C 6001.076 1190.292 6197.076 1258.292 6334.076 1396.292 C 6468.076 969.292 6795.076 564.292 7219.076 399.292 C 7337.076 353.292 7467.076 325.292 7597.076 325.292 C 7699.076 325.292 7800.076 342.292 7893.076 382.292 C 8146.076 489.292 8298.076 739.292 8457.076 949.292 C 8474.076 972.292 8531.076 1072.292 8556.076 1076.292 C 8556.076 1076.292 8556.076 1076.292 8557.076 1076.292 C 8576.076 1076.292 8754.076 996.292 8820.076 970.292 C 8885.076 945.292 8951.076 932.292 9016.076 932.292 C 9136.076 932.292 9252.076 975.292 9348.076 1061.292 C 9755.076 1428.292 9654.076 2027.292 9637.076 2529.292 L 9636.076 2529.292 Z"/>
    <path class="fil2" d="M 3851.355 9800.469 C 3876.202 10362.768 53.818 10421.954 26.355 9800.469 L 26.355 8912.469 C 34.355 8900.469 43.355 8888.469 52.355 8877.469 C 170.355 8724.469 363.355 8648.469 556.355 8648.469 C 725.355 8648.469 893.355 8707.469 1011.355 8825.469 C 1126.355 8457.469 1408.355 8109.469 1772.355 7968.469 C 1873.355 7929.469 1986.355 7905.469 2097.355 7905.469 C 2185.355 7905.469 2271.355 7920.469 2351.355 7954.469 C 2568.355 8046.469 2699.355 8261.469 2836.355 8442.469 C 2851.355 8461.469 2900.355 8548.469 2921.355 8552.469 C 2921.355 8552.469 2921.355 8552.469 2922.355 8552.469 C 2938.355 8552.469 3091.355 8483.469 3148.355 8461.469 C 3203.355 8439.469 3261.355 8428.469 3317.355 8428.469 C 3420.355 8428.469 3520.355 8465.469 3603.355 8539.469 C 3953.355 8855.469 3866.355 9376.469 3851.355 9801.469 L 3851.355 9800.469 Z"/>
    <path class="fil2" d="M 7214.218 18927.679 C 6972.899 19586.865 1991.034 20342.205 -421.112 18927.679 C -587.099 18315.27 -466.066 17532.647 -106.432 17034.951 C 118.34 16724.123 486.619 16568.708 854.901 16568.708 C 1183.413 16568.708 1511.927 16692.668 1741.886 16938.742 C 1963.199 16180.172 2506.11 15464.155 3208.089 15171.828 C 3403.468 15090.419 3619.596 15040.466 3835.722 15040.466 C 4003.437 15040.466 4171.151 15070.067 4325.033 15140.375 C 4743.454 15329.091 4995.892 15773.133 5260.431 16145.019 C 5288.096 16185.722 5383.191 16361.488 5424.687 16368.888 C 5424.687 16368.888 5424.687 16368.888 5426.416 16368.888 C 5457.538 16368.888 5751.47 16224.576 5862.127 16178.32 C 5971.056 16132.067 6083.442 16109.864 6194.099 16109.864 C 6389.477 16109.864 6581.398 16183.872 6738.739 16335.585 C 7413.055 16986.846 7245.34 18078.45 7217.677 18927.679 L 7214.218 18927.679 Z" style=""/>
    <path class="fil2" d="M 20228.263 18842.624 C 20048.419 19356.746 16335.652 19945.862 14537.984 18842.624 C 14414.281 18364.985 14504.482 17754.59 14772.501 17366.42 C 14940.014 17123.994 15214.476 17002.781 15488.941 17002.781 C 15733.767 17002.781 15978.594 17099.461 16149.972 17291.383 C 16314.908 16699.748 16719.515 16141.3 17242.669 15913.305 C 17388.277 15849.811 17549.348 15810.852 17710.417 15810.852 C 17835.408 15810.852 17960.398 15833.939 18075.08 15888.773 C 18386.911 16035.96 18575.041 16382.284 18772.191 16672.331 C 18792.808 16704.076 18863.678 16841.163 18894.603 16846.934 C 18894.603 16846.934 18894.603 16846.934 18895.892 16846.934 C 18919.086 16846.934 19138.14 16734.38 19220.608 16698.303 C 19301.789 16662.229 19385.545 16644.912 19468.013 16644.912 C 19613.62 16644.912 19756.65 16702.634 19873.909 16820.96 C 20376.447 17328.901 20251.457 18180.281 20230.84 18842.624 L 20228.263 18842.624 Z" style=""/>
    <path class="fil2" d="M 25664.332 5965.699 C 25408.204 6721.998 20120.612 7588.616 17560.435 5965.699 C 17384.264 5263.072 17512.723 4365.151 17894.428 3794.135 C 18132.994 3437.516 18523.874 3259.204 18914.755 3259.204 C 19263.428 3259.204 19612.102 3401.427 19856.173 3683.753 C 20091.069 2813.428 20667.296 1991.928 21412.355 1656.535 C 21619.723 1563.135 21849.114 1505.821 22078.505 1505.821 C 22256.512 1505.821 22434.517 1539.784 22597.845 1620.448 C 23041.943 1836.968 23309.871 2346.426 23590.644 2773.097 C 23620.007 2819.797 23720.939 3021.459 23764.981 3029.948 C 23764.981 3029.948 23764.981 3029.948 23766.817 3029.948 C 23799.849 3029.948 24111.819 2864.375 24229.266 2811.305 C 24344.879 2758.237 24464.163 2732.765 24581.611 2732.765 C 24788.978 2732.765 24992.677 2817.673 25159.673 2991.738 C 25875.37 3738.944 25697.364 4991.362 25668.003 5965.699 L 25664.332 5965.699 Z" style=""/>
  </g>
</svg>
